# This file uses centimeters as units for non-parametric coordinates.

mtllib Punta de pincel.mtl
g default
v -0.061031 0.100286 0.070343
v 0.011565 0.100286 0.070343
v -0.082037 0.369729 0.070343
v 0.035550 0.369729 0.070343
v -0.082037 0.369729 -0.039003
v 0.035550 0.369729 -0.039003
v -0.061031 0.100286 -0.039003
v 0.011565 0.100286 -0.039003
v -0.018741 -0.031563 0.070343
v -0.018741 -0.031563 -0.039003
v -0.018741 0.369729 -0.039003
v -0.018741 0.369729 0.070343
v -0.082037 0.369729 0.011286
v -0.018741 0.369729 0.011286
v 0.035550 0.369729 0.011286
v 0.011565 0.100286 0.011286
v -0.018741 -0.031563 0.011286
v -0.061031 0.100286 0.011286
v -0.080628 0.351655 0.070343
v -0.018741 0.342811 0.070343
v 0.033941 0.351655 0.070343
v 0.033941 0.351655 0.011286
v 0.033941 0.351655 -0.039003
v -0.018741 0.342811 -0.039003
v -0.080628 0.351655 -0.039003
v -0.080628 0.351655 0.011286
v -0.039069 0.031815 0.070343
v -0.039069 0.031815 0.011286
v -0.039069 0.031815 -0.039003
v -0.048489 0.347062 -0.039003
v -0.049166 0.369729 -0.039003
v -0.049166 0.369729 0.011286
v -0.049166 0.369729 0.070343
v -0.048489 0.347062 0.070343
v -0.004942 0.028473 0.070343
v -0.004942 0.028473 0.011286
v -0.004942 0.028473 -0.039003
v 0.005247 0.346838 -0.039003
v 0.005979 0.369729 -0.039003
v 0.005979 0.369729 0.011286
v 0.005979 0.369729 0.070343
v 0.005247 0.346838 0.070343
vt 0.396127 0.084507
vt 0.603873 0.084507
vt 0.396127 0.292254
vt 0.603873 0.292254
vt 0.396127 0.500000
vt 0.603873 0.500000
vt 0.396127 0.707747
vt 0.603873 0.707747
vt 0.396127 0.915493
vt 0.603873 0.915493
vt 0.811620 0.084507
vt 0.811620 0.292254
vt 0.188380 0.084507
vt 0.188380 0.292254
vt 0.517147 0.084507
vt 0.517147 0.915493
vt 0.517147 0.707747
vt 0.517147 0.500000
vt 0.517147 0.292254
vt 0.283924 0.292254
vt 0.396127 0.404456
vt 0.517147 0.404456
vt 0.603873 0.404456
vt 0.716076 0.292254
vt 0.603873 0.803290
vt 0.716076 0.084507
vt 0.517147 0.803290
vt 0.283924 0.084507
vt 0.396127 0.803290
vt 0.396127 0.278318
vt 0.517147 0.278318
vt 0.603873 0.278318
vt 0.716076 0.278318
vt 0.603873 0.513935
vt 0.811620 0.278318
vt 0.517147 0.513935
vt 0.188380 0.278318
vt 0.396127 0.513935
vt 0.283924 0.278318
vt 0.458974 0.084507
vt 0.458974 0.915493
vt 0.458974 0.803290
vt 0.458974 0.707747
vt 0.458974 0.513935
vt 0.458974 0.500000
vt 0.458974 0.404456
vt 0.458974 0.292254
vt 0.458974 0.278318
vt 0.556636 0.084507
vt 0.556636 0.915493
vt 0.556636 0.803290
vt 0.556636 0.707747
vt 0.556636 0.513935
vt 0.556636 0.500000
vt 0.556636 0.404456
vt 0.556636 0.292254
vt 0.556636 0.278318
vn 0.000000 0.000000 1.000000
vn -0.000000 0.000000 1.000000
vn -0.000000 0.000000 1.000000
vn 0.000000 0.000000 1.000000
vn 0.000000 1.000000 0.000000
vn 0.000000 1.000000 0.000000
vn 0.000000 1.000000 0.000000
vn 0.000000 1.000000 0.000000
vn -0.000000 0.000000 -1.000000
vn 0.000000 0.000000 -1.000000
vn 0.000000 0.000000 -1.000000
vn 0.000000 0.000000 -1.000000
vn 0.974585 -0.224017 -0.000000
vn 0.974585 -0.224017 -0.000000
vn 0.974585 -0.224017 -0.000000
vn 0.974585 -0.224017 -0.000000
vn 0.996062 -0.088664 -0.000000
vn 0.996062 -0.088664 -0.000000
vn 0.996062 -0.088664 -0.000000
vn 0.996062 -0.088664 0.000000
vn -0.996975 -0.077722 -0.000000
vn -0.996975 -0.077722 -0.000000
vn -0.996975 -0.077722 -0.000000
vn -0.996975 -0.077723 -0.000000
vn -0.952217 -0.305423 -0.000000
vn -0.952217 -0.305423 -0.000000
vn -0.097462 -0.995239 -0.000000
vn -0.097462 -0.995239 -0.000000
vn -0.000000 0.000000 -1.000000
vn 0.000000 0.000000 -1.000000
vn -0.000000 0.000000 -1.000000
vn -0.000000 0.000000 -1.000000
vn 0.000000 1.000000 0.000000
vn 0.000000 1.000000 0.000000
vn 0.000000 1.000000 0.000000
vn 0.000000 1.000000 0.000000
vn -0.000000 0.000000 1.000000
vn -0.000000 0.000000 1.000000
vn 0.000000 -0.000000 1.000000
vn 0.000000 0.000000 1.000000
vn 0.000000 1.000000 0.000000
vn 0.000000 1.000000 0.000000
vn 0.000000 1.000000 0.000000
vn 0.000000 1.000000 0.000000
vn 0.996062 -0.088664 -0.000000
vn 0.996062 -0.088664 -0.000000
vn 0.974585 -0.224017 0.000000
vn 0.974585 -0.224017 0.000000
vn -0.952217 -0.305423 0.000000
vn -0.097462 -0.995239 0.000000
vn -0.996975 -0.077722 0.000000
vn -0.996975 -0.077722 0.000000
vn -0.000000 -0.000000 1.000000
vn 0.000000 -0.000000 1.000000
vn 0.000000 -0.000000 1.000000
vn -0.000000 0.000000 1.000000
vn 0.996062 -0.088664 -0.000000
vn 0.996062 -0.088664 -0.000000
vn 0.996062 -0.088664 -0.000000
vn 0.000000 -0.000000 -1.000000
vn -0.000000 -0.000000 -1.000000
vn -0.000000 -0.000000 -1.000000
vn -0.000000 0.000000 -1.000000
vn -0.996975 -0.077722 -0.000000
vn -0.996975 -0.077722 -0.000000
vn -0.996975 -0.077722 0.000000
vn -0.952217 -0.305423 0.000000
vn -0.952217 -0.305423 0.000000
vn -0.952217 -0.305423 -0.000000
vn 0.000000 0.000000 -1.000000
vn 0.000000 -0.000000 -1.000000
vn 0.000000 0.000000 -1.000000
vn 0.000000 1.000000 0.000000
vn 0.000000 1.000000 0.000000
vn 0.000000 1.000000 0.000000
vn -0.000000 0.000000 1.000000
vn -0.000000 0.000000 1.000000
vn 0.000000 0.000000 1.000000
s 1
g Pincel:pCube1
usemtl lambert3SG
f 41/56/1 42/57/2 21/32/3 4/4/4
s 2
f 39/54/5 40/55/6 15/23/7 6/6/8
s 3
f 23/34/9 38/53/10 39/54/11 6/6/12
s 4
f 16/25/13 36/51/14 37/52/15 8/8/16
s 5
f 15/24/17 22/33/18 23/35/19 6/12/20
s 6
f 25/37/21 26/39/22 13/20/23 5/14/24
s 4
f 28/42/25 29/43/26 10/17/27 17/27/28
s 3
f 30/44/29 31/45/30 11/18/31 24/36/32
s 2
f 31/45/33 32/46/34 14/22/35 11/18/36
s 1
f 33/47/37 34/48/38 20/31/39 12/19/40
s 2
f 32/46/34 33/47/41 12/19/42 14/22/35
f 15/23/7 40/55/6 41/56/43 4/4/44
s 5
f 21/32/45 22/33/18 15/24/17 4/4/46
s 4
f 35/50/47 36/51/14 16/25/13 2/10/48
f 27/41/49 28/42/25 17/27/28 9/16/50
s 6
f 13/20/23 26/39/22 19/30/51 3/3/52
s 1
f 34/48/38 27/40/53 9/15/54 20/31/39
f 21/32/3 42/57/2 35/49/55 2/2/56
s 5
f 2/2/57 16/26/58 22/33/18 21/32/45
f 23/35/19 22/33/18 16/26/58 8/11/59
s 3
f 37/52/60 38/53/10 23/34/9 8/8/61
f 29/43/62 30/44/29 24/36/32 10/17/63
s 6
f 7/13/64 18/28/65 26/39/22 25/37/21
f 19/30/51 26/39/22 18/28/65 1/1/66
s 4
f 18/29/67 28/42/25 27/41/49 1/9/68
f 7/7/69 29/43/26 28/42/25 18/29/67
s 3
f 25/38/70 30/44/29 29/43/62 7/7/71
f 5/5/72 31/45/30 30/44/29 25/38/70
s 2
f 13/21/73 32/46/34 31/45/33 5/5/74
f 3/3/75 33/47/41 32/46/34 13/21/73
s 1
f 19/30/76 34/48/38 33/47/37 3/3/77
f 1/1/78 27/40/53 34/48/38 19/30/76
s 4
f 9/16/50 17/27/28 36/51/14 35/50/47
f 37/52/15 36/51/14 17/27/28 10/17/27
s 3
f 10/17/63 24/36/32 38/53/10 37/52/60
f 39/54/11 38/53/10 24/36/32 11/18/31
s 2
f 11/18/36 14/22/35 40/55/6 39/54/5
f 41/56/43 40/55/6 14/22/35 12/19/42
s 1
f 12/19/40 20/31/39 42/57/2 41/56/1
f 35/49/55 42/57/2 20/31/39 9/15/54
